<?xml version="1.0" encoding="UTF-8"?>
<svg xmlns="http://www.w3.org/2000/svg" xmlns:xlink="http://www.w3.org/1999/xlink" width="3585" height="3480" viewBox="0 0 3585 3480">
<path fill-rule="nonzero" fill="rgb(0%, 0%, 0%)" fill-opacity="1" d="M 2261.101562 3403.941406 C 2183.949219 3310.777344 2111.308594 3253.476562 2048.660156 3236.375 C 1971.230469 3215.234375 1960.28125 3218.34375 1717.660156 3330.296875 C 1536.460938 3413.914062 1416.160156 3438.476562 1338.75 3407.671875 C 1316.679688 3398.890625 1286.558594 3380.414062 1271.820312 3366.617188 C 1231.859375 3329.207031 1170.640625 3218.707031 1135.320312 3120.253906 C 1108.820312 3046.351562 1099.628906 3030.007812 1075 3012.949219 C 992.734375 2955.972656 988.5 2951.828125 988.5 2928.277344 C 988.5 2877.039062 1024.691406 2857.574219 1165.488281 2833.082031 C 1287.410156 2811.871094 1306.191406 2801.640625 1209.460938 2809.128906 C 1168.140625 2812.328125 1097.191406 2814.984375 1051.800781 2815.035156 C 972.261719 2815.121094 968.492188 2814.382812 947.949219 2794.738281 C 936.226562 2783.527344 926.632812 2766.804688 926.632812 2757.578125 C 926.632812 2738.597656 957.703125 2702.515625 974.042969 2702.515625 C 979.96875 2702.515625 1002.390625 2687.800781 1023.859375 2669.820312 C 1054.148438 2644.449219 1069.28125 2637.128906 1091.429688 2637.128906 C 1129.78125 2637.128906 1492.191406 2743.207031 1513.828125 2760.765625 C 1528.988281 2773.066406 1529.589844 2776.765625 1519.019531 2792.996094 C 1512.449219 2803.082031 1457.769531 2854.6875 1397.511719 2907.671875 C 1337.25 2960.660156 1281.789062 3015.371094 1274.269531 3029.257812 C 1252.570312 3069.3125 1261.320312 3182.386719 1289.691406 3228.59375 C 1318.789062 3275.984375 1361.921875 3303.609375 1423.351562 3314.203125 C 1466.851562 3321.703125 1482.480469 3320.8125 1551.101562 3306.933594 C 1759.609375 3264.761719 2154.378906 3049.527344 2432.230469 2826.523438 C 2557.078125 2726.320312 2611.859375 2668.917969 2660.558594 2587.246094 C 2688.808594 2539.882812 2697.75 2515.597656 2701.101562 2477.230469 C 2705.179688 2430.269531 2704.308594 2427.410156 2682.058594 2415.429688 C 2654.441406 2400.550781 2618.230469 2404.480469 2573.480469 2427.210938 C 2556.949219 2435.609375 2504.300781 2483.820312 2456.46875 2534.351562 C 2353.601562 2643.039062 2273.660156 2707.9375 2210 2734.453125 C 2067.269531 2793.90625 1924.988281 2784.589844 1824.660156 2709.21875 C 1780.210938 2675.820312 1775.96875 2674.265625 1747.699219 2680.929688 C 1696.230469 2693.066406 1632.640625 2689.128906 1584.910156 2670.859375 C 1501.191406 2638.816406 1429.210938 2551.6875 1334.96875 2368.320312 C 1240.191406 2183.929688 1192.53125 2030.800781 1185.148438 1887.019531 C 1182.539062 1836.070312 1177.308594 1794.390625 1173.519531 1794.390625 C 1157.371094 1794.390625 1102.769531 1857.660156 1081.839844 1900.628906 C 1052.359375 1961.160156 1029.648438 2069.441406 1037.101562 2113.960938 C 1045.75 2165.671875 1068.589844 2190.339844 1131.820312 2216.320312 C 1198.410156 2243.660156 1223.308594 2261.359375 1245.671875 2297.199219 C 1287.160156 2363.691406 1254.921875 2425.828125 1169.710938 2443.601562 C 1126 2452.710938 1125.488281 2453.148438 1119.628906 2486.828125 C 1109.808594 2543.253906 1060.898438 2593.539062 1015.828125 2593.539062 C 997.003906 2593.539062 970.792969 2568.242188 970.871094 2550.148438 C 970.984375 2525.246094 990.546875 2483.679688 1012.039062 2462.691406 C 1024.609375 2450.410156 1032.441406 2438.339844 1029.429688 2435.871094 C 1026.429688 2433.410156 983.179688 2439.058594 933.320312 2448.441406 C 813.492188 2470.96875 716.320312 2472.019531 682.082031 2451.148438 C 647.308594 2429.949219 646.621094 2403.011719 677.988281 2291.210938 C 708.480469 2182.519531 758.703125 1960.871094 758.703125 1934.960938 L 758.703125 1917.210938 L 723.347656 1940.558594 C 685.238281 1965.730469 680.523438 1976.398438 701.253906 1990.539062 C 721.75 2004.53125 717.484375 2039.621094 692.816406 2059.890625 C 665.585938 2082.269531 634.839844 2082.648438 609.992188 2060.910156 C 588.597656 2042.191406 585.789062 2022.019531 600.800781 1994.929688 C 609.71875 1978.839844 607.613281 1974.210938 581.691406 1952.898438 C 515.96875 1898.871094 493.523438 1807.789062 493.617188 1595.460938 C 493.679688 1446.949219 507.503906 1261.308594 534.410156 1047.578125 C 544.558594 967 546.433594 926.820312 540.289062 921.769531 C 534.144531 916.71875 514.183594 917.25 477.78125 923.429688 C 435.4375 930.621094 416.789062 930.660156 388.203125 923.621094 C 322.65625 907.46875 257.214844 833.871094 211.664062 725.039062 C 202.785156 703.828125 178.746094 665.21875 158.242188 639.25 C 16.265625 459.398438 -37.792969 257.261719 27.867188 151.738281 C 55.542969 107.269531 86.949219 90.761719 144.074219 90.660156 C 187.523438 90.578125 193.695312 88.308594 226.902344 60.179688 C 299.527344 -1.328125 356.136719 8.75 587.632812 124.390625 C 705.910156 183.46875 779.289062 213.078125 840.054688 226.238281 L 881.632812 235.238281 L 990.304688 191.050781 C 1050.078125 166.738281 1115.5 142.800781 1135.691406 137.839844 C 1227.421875 115.300781 1296.238281 163.25 1251.410156 218.46875 C 1236.011719 237.429688 1217.691406 247.238281 1173.949219 259.941406 C 1121.410156 275.210938 1105.960938 276.289062 987.792969 273 C 890.199219 270.28125 848.574219 271.96875 816.25 279.96875 C 710.855469 306.039062 615.695312 288.199219 404.910156 202.851562 C 316.777344 167.160156 237.183594 137.960938 228.035156 137.960938 C 186.898438 137.960938 163.546875 324.960938 184.679688 485.148438 C 205.863281 645.75 235.25 704.679688 329.882812 776.390625 C 403.066406 831.839844 420.527344 832.398438 683.578125 787.898438 C 1098.121094 717.761719 1277.140625 700.988281 1552.238281 706.519531 C 1754.808594 710.589844 1806.980469 718.878906 1853.140625 754.320312 C 1890.109375 782.710938 1895.539062 815.671875 1879.300781 913.050781 C 1871.839844 957.75 1867.769531 1003.058594 1870.25 1013.730469 C 1876.660156 1041.269531 1918.019531 1053.320312 2006.839844 1053.511719 C 2163.410156 1053.859375 2185.289062 1077.050781 2279.800781 1342.960938 C 2335.640625 1500.089844 2345.449219 1521.28125 2359.070312 1514.371094 C 2363.789062 1511.96875 2381.761719 1485.558594 2399.019531 1455.679688 C 2416.269531 1425.789062 2457.949219 1367.460938 2491.640625 1326.039062 C 2546.46875 1258.640625 2552.878906 1247.058594 2552.769531 1215.621094 C 2552.328125 1081.171875 2438.730469 853.621094 2283.699219 676.628906 C 2158.828125 534.070312 2060.929688 458.390625 1833.859375 328.859375 C 1683.96875 243.359375 1639.101562 208.75 1627.96875 170.039062 C 1619.871094 141.898438 1619.210938 141.519531 1562.660156 133.109375 C 1531.25 128.441406 1455.828125 120.929688 1395.070312 116.421875 C 1258.820312 106.308594 1239.21875 103.269531 1222.640625 89.640625 C 1192.53125 64.890625 1250.28125 30.730469 1357.308594 9.980469 C 1442.160156 -6.460938 1677.039062 0.101562 1788.371094 22.019531 C 1853.910156 34.929688 1899.820312 38.03125 2049.101562 39.640625 C 2178.191406 41.03125 2250.621094 45.140625 2301 53.941406 C 2546.140625 96.78125 2804.339844 207.050781 2965.011719 337.53125 C 3111.019531 456.101562 3222.609375 637.5 3250.328125 801.359375 C 3269.421875 914.160156 3225.75 1038.820312 3167.160156 1038.820312 C 3133.03125 1038.820312 3112.96875 1010.789062 3055.410156 882.621094 C 2990.070312 737.140625 2784.429688 509.511719 2590.78125 368.300781 C 2416.5 241.21875 2210.890625 149.601562 1951.179688 83.289062 C 1905.820312 71.710938 1896.609375 71.589844 1836.179688 81.710938 C 1763.039062 93.980469 1704.410156 111.941406 1704.410156 122.089844 C 1704.410156 125.75 1729.269531 136.148438 1759.648438 145.199219 C 1841.640625 169.621094 1939.050781 211.671875 2013.75 254.890625 C 2105.359375 307.898438 2264.378906 437.03125 2366.300781 541.171875 C 2547.148438 725.960938 2755.679688 990.46875 2783.601562 1070.488281 C 2794.28125 1101.101562 2774.78125 1132.328125 2724.390625 1165.339844 C 2652.480469 1212.441406 2588.238281 1266.410156 2588.238281 1279.710938 C 2588.238281 1303.789062 2605.050781 1300.328125 2656.121094 1265.769531 C 2815.621094 1157.808594 2938.398438 1111.46875 3065.019531 1111.46875 C 3166.609375 1111.46875 3287.71875 1161.851562 3376.800781 1241.179688 C 3499.308594 1350.261719 3571.628906 1504.488281 3583.410156 1681.78125 C 3598.148438 1903.539062 3489.898438 2140.738281 3311.378906 2277.859375 C 3207.460938 2357.660156 3097.421875 2392.570312 2950.621094 2392.28125 C 2679.039062 2391.75 2503.460938 2268.648438 2422.898438 2022.300781 C 2402.28125 1959.238281 2399.398438 1936.558594 2399.011719 1834.339844 C 2398.589844 1726.210938 2400.179688 1714.558594 2421.730469 1667.25 C 2437.570312 1632.488281 2446.558594 1595.320312 2450.140625 1549.789062 C 2456.019531 1474.910156 2481.730469 1408.25 2511.269531 1391.238281 C 2556.769531 1365.050781 2605.921875 1392.300781 2605.921875 1443.710938 C 2605.921875 1468.738281 2595.878906 1485.550781 2543.300781 1548.589844 L 2480.691406 1623.660156 L 2485.289062 1681.78125 C 2494.5 1797.921875 2541.851562 1938.78125 2598.269531 2017.871094 C 2614.628906 2040.800781 2657.839844 2084.101562 2694.308594 2114.101562 C 2802.140625 2202.820312 2922.480469 2241.03125 3040.339844 2223.96875 C 3202.378906 2200.511719 3334.460938 2100.320312 3400.191406 1951 C 3498.949219 1726.640625 3460.589844 1529.210938 3289.210938 1379.878906 C 3186.398438 1290.300781 3099.828125 1271.851562 3006.019531 1319.53125 C 2869.929688 1388.679688 2800.238281 1611.769531 2857.75 1794.171875 C 2879.71875 1863.871094 2926.539062 1933.53125 2987.328125 1986.949219 C 3120.410156 2103.890625 3219.691406 2103.238281 3320.230469 1984.769531 C 3358.390625 1939.808594 3374.859375 1929.609375 3374.859375 1950.941406 C 3374.859375 1983.519531 3296.480469 2062.261719 3240.820312 2085.601562 C 3192.460938 2105.878906 3128.460938 2103.890625 3071.851562 2080.339844 C 3016.398438 2057.269531 2930.660156 1986.601562 2890.328125 1930.730469 C 2726.410156 1703.621094 2810.359375 1337.359375 3040.75 1274.460938 C 3173.070312 1238.328125 3329.910156 1329.570312 3428.730469 1500.148438 C 3501.210938 1625.269531 3507.738281 1765.449219 3448.351562 1921.230469 C 3368.519531 2130.578125 3196.949219 2253.480469 2985.289062 2252.929688 C 2869.109375 2252.628906 2766.71875 2213.660156 2664.96875 2130.988281 C 2568.371094 2052.511719 2506.03125 1945.730469 2471.839844 1800.179688 C 2461.238281 1755.039062 2451.28125 1716.738281 2449.699219 1715.078125 C 2432.53125 1696.960938 2419.46875 1813.339844 2429.789062 1892.460938 C 2449.890625 2046.570312 2514.859375 2178.671875 2608.160156 2255.140625 C 2751.179688 2372.371094 2987.140625 2401.441406 3176.238281 2325.121094 C 3372.21875 2246.019531 3532.910156 2004.050781 3549.019531 1763.808594 C 3566.699219 1499.980469 3424.359375 1255.03125 3201.019531 1164.949219 C 3153.878906 1145.941406 3141.550781 1144.210938 3056.679688 1144.671875 C 2974.230469 1145.109375 2956.929688 1147.589844 2901.71875 1166.839844 C 2831.628906 1191.289062 2782.789062 1217.28125 2682.371094 1283.601562 C 2610.421875 1331.121094 2587.351562 1337.589844 2560.621094 1317.699219 C 2545.828125 1306.699219 2542.671875 1308.820312 2509.039062 1352.210938 C 2489.328125 1377.640625 2453.480469 1429.828125 2429.378906 1468.191406 C 2380.140625 1546.53125 2364.53125 1561.199219 2342.238281 1550.089844 C 2317.910156 1537.949219 2300.078125 1500.160156 2243.960938 1341.820312 C 2185.480469 1176.800781 2161.539062 1130.558594 2119.570312 1101.519531 C 2096.019531 1085.238281 2083.21875 1082.339844 2032.960938 1081.878906 C 1926.691406 1080.929688 1880.640625 1072.46875 1856.589844 1049.488281 C 1833.148438 1027.089844 1833.191406 1028.308594 1851.109375 855.75 C 1856.839844 800.679688 1856.519531 799.488281 1830.679688 778.25 C 1785.300781 740.949219 1752.628906 737.28125 1470.191406 737.769531 C 1175.890625 738.28125 1124.589844 743.21875 717.453125 810.351562 C 585.386719 832.121094 462.960938 849.929688 445.386719 849.929688 C 406.828125 849.929688 362.902344 835.621094 321.207031 809.480469 C 298.820312 795.449219 290.269531 793.039062 290.269531 800.761719 C 290.269531 817.519531 340.90625 870.691406 372.292969 886.898438 C 401.355469 901.910156 414.585938 902.101562 526.566406 889.101562 C 585.207031 882.289062 586.269531 889.628906 560.234375 1121.488281 C 524.589844 1438.910156 514.679688 1677.320312 533.875 1755.691406 C 537.542969 1770.660156 539.097656 1770.921875 563.957031 1760.730469 C 594.875 1748.050781 636.566406 1754.929688 678.84375 1779.671875 C 693.535156 1788.269531 709.457031 1793.320312 714.230469 1790.890625 C 719.003906 1788.46875 741.398438 1766.738281 763.992188 1742.601562 C 795.742188 1708.691406 810.496094 1683.328125 828.953125 1630.980469 C 867.3125 1522.160156 893.136719 1501.871094 967.046875 1522.5 L 1007.148438 1533.691406 L 1097.261719 1496.941406 C 1214.410156 1449.160156 1334.121094 1423.871094 1443.199219 1423.871094 C 1565.589844 1423.871094 1662.289062 1451.699219 1685.519531 1493.601562 C 1721.390625 1558.320312 1560.011719 1601.109375 1280.171875 1601.101562 C 1145.53125 1601.089844 1118.140625 1599.070312 1068.691406 1585.488281 C 1037.460938 1576.910156 1007.628906 1571.949219 1002.410156 1574.46875 C 972.558594 1588.851562 910.632812 1635.5 878.960938 1667.449219 C 845.046875 1701.679688 841.289062 1710.03125 826.535156 1783.859375 C 792.679688 1953.351562 730.183594 2230.109375 709.585938 2301.769531 C 680.546875 2402.789062 680.992188 2424.550781 712.300781 2434.609375 C 744.082031 2444.820312 841.082031 2438.148438 940.804688 2418.878906 C 1014.96875 2404.558594 1048.621094 2403.929688 1105.480469 2415.789062 C 1139.21875 2422.828125 1189.519531 2413.769531 1209.949219 2396.980469 C 1221.601562 2387.398438 1227.140625 2372.871094 1227.140625 2351.851562 C 1227.140625 2306.089844 1195.769531 2272.679688 1127.878906 2246.128906 C 1067.820312 2222.648438 1030.378906 2194.800781 1015.578125 2162.609375 C 1001.640625 2132.289062 1004.179688 2033.421875 1020.429688 1973.808594 C 1043.449219 1889.390625 1085.289062 1823.179688 1149.089844 1770.25 C 1179.859375 1744.71875 1213 1713 1222.710938 1699.78125 C 1252.738281 1658.929688 1283.101562 1645.449219 1345.089844 1645.449219 C 1391.199219 1645.449219 1406.859375 1649.058594 1443.878906 1668.171875 C 1468.070312 1680.671875 1503.679688 1692.839844 1523.011719 1695.230469 C 1590.351562 1703.53125 1626.179688 1743.300781 1593.269531 1773.191406 C 1568.578125 1795.609375 1542.789062 1790.128906 1501.140625 1753.609375 L 1462.921875 1720.089844 L 1401.300781 1725.078125 C 1323.480469 1731.378906 1230.609375 1754.660156 1223.640625 1769.609375 C 1213.660156 1790.980469 1218.269531 1935.820312 1230.789062 1994.179688 C 1261.679688 2138.160156 1330.859375 2306.070312 1422.351562 2459.140625 C 1515.328125 2614.675781 1564.398438 2653.527344 1672.679688 2657.320312 C 1759.960938 2660.378906 1763.121094 2657.511719 1739.898438 2596.367188 C 1717.96875 2538.640625 1714.179688 2455.660156 1730.75 2396.25 C 1758.410156 2297.140625 1855.890625 2183.800781 1944.820312 2147.371094 C 2029.410156 2112.71875 2118.828125 2129.511719 2198.039062 2194.910156 C 2281.5 2263.820312 2307.53125 2337.390625 2270.628906 2400.058594 C 2233.46875 2463.148438 2070.859375 2566.515625 1906.039062 2631.816406 C 1863.359375 2648.722656 1828.378906 2666.621094 1828.289062 2671.59375 C 1828.058594 2685.886719 1897.46875 2723.40625 1946.089844 2735.277344 C 2005.730469 2749.835938 2063.089844 2748.90625 2127.839844 2732.339844 C 2233.089844 2705.414062 2297 2659.671875 2435.628906 2512.0625 C 2546.011719 2394.53125 2599.601562 2365.800781 2676.648438 2382.859375 C 2728.691406 2394.371094 2742.160156 2415.640625 2735.960938 2476.460938 C 2727.140625 2562.902344 2674.441406 2647.289062 2559.609375 2758.851562 C 2454.769531 2860.707031 2231.789062 3017.566406 2028.511719 3132.46875 C 1974.21875 3163.164062 1921.828125 3193.4375 1912.109375 3199.746094 C 1895.441406 3210.558594 1896.460938 3210.921875 1929.789062 3206.054688 C 2066.789062 3186.046875 2167.890625 3237.25 2287.140625 3387.050781 C 2337.480469 3450.277344 2351.898438 3479.871094 2332.378906 3479.871094 C 2327.761719 3479.871094 2295.691406 3445.703125 2261.101562 3403.941406 Z M 1512.480469 3378.699219 C 1569.351562 3362.617188 1742.628906 3290.914062 1736.589844 3285.957031 C 1734.378906 3284.136719 1721.261719 3287.417969 1707.441406 3293.253906 C 1647.921875 3318.375 1530.949219 3343.160156 1470.191406 3343.523438 C 1396.449219 3343.960938 1351.128906 3330.160156 1305.019531 3293.222656 C 1255.609375 3253.652344 1234.058594 3205.421875 1229.109375 3123.355469 C 1223.5 3030.234375 1234.171875 3012.121094 1359.238281 2902.304688 C 1471.820312 2803.449219 1489.519531 2784.515625 1478.109375 2775.136719 C 1464.289062 2763.773438 1120.25 2666.1875 1094.011719 2666.1875 C 1075.898438 2666.1875 1062.589844 2673.03125 1046.058594 2690.851562 C 1033.480469 2704.414062 1011.679688 2719.425781 997.636719 2724.207031 C 954.28125 2738.96875 952.007812 2778.269531 994.003906 2786.933594 C 1014.679688 2791.199219 1040.269531 2790.292969 1240.390625 2778.21875 C 1312.558594 2773.867188 1321.988281 2774.808594 1342.039062 2788.378906 L 1364.128906 2803.339844 L 1346.339844 2818.199219 C 1333.449219 2828.96875 1293.339844 2839.054688 1200.640625 2854.824219 C 1064.601562 2877.972656 1030.089844 2891.320312 1025.53125 2922.546875 C 1023.308594 2937.742188 1031.199219 2946.667969 1066.640625 2969.050781 C 1121.390625 3003.621094 1140.238281 3030.300781 1168.601562 3113.328125 C 1218.441406 3259.277344 1281.480469 3350.761719 1355.289062 3384.234375 C 1382.859375 3396.734375 1458.070312 3394.085938 1512.480469 3378.699219 Z M 1889.691406 2607.765625 C 1974.171875 2574.1875 2095.199219 2511.066406 2158.898438 2467.371094 C 2253.960938 2402.160156 2275.371094 2339.738281 2226.628906 2269.898438 C 2178.730469 2201.269531 2102.648438 2157.640625 2030.839844 2157.640625 C 1909.039062 2157.640625 1773.371094 2301.601562 1752.75 2452.71875 C 1743.46875 2520.730469 1777.050781 2637.128906 1805.941406 2637.128906 C 1811.378906 2637.128906 1849.058594 2623.914062 1889.691406 2607.765625 Z M 1047.71875 2548.132812 C 1083.921875 2515.46875 1100.410156 2462.769531 1074.429688 2462.769531 C 1039.308594 2462.769531 995.34375 2523.527344 1009.121094 2553.035156 C 1016.421875 2568.671875 1026.359375 2567.410156 1047.71875 2548.132812 Z M 672.988281 2033.300781 C 685.378906 2017.128906 674.546875 1997.808594 653.089844 1997.808594 C 634.222656 1997.808594 619.363281 2026.519531 630.539062 2041.390625 C 638.683594 2052.21875 661.878906 2047.800781 672.988281 2033.300781 Z M 693.578125 1922.480469 C 734.660156 1888.710938 739.167969 1877.660156 720.441406 1856.609375 C 710.84375 1845.820312 705.285156 1844.898438 690.085938 1851.589844 C 660.316406 1864.679688 604.652344 1861.488281 579.523438 1845.238281 C 549.722656 1825.96875 545.128906 1826.890625 552.074219 1850.691406 C 565.472656 1896.621094 615.613281 1954.21875 642.203125 1954.21875 C 649.222656 1954.21875 672.34375 1939.941406 693.578125 1922.480469 Z M 788.320312 1803.46875 C 795.308594 1767.171875 785.222656 1763.769531 759.304688 1793.691406 C 737.121094 1819.300781 736.75 1825.859375 756.117188 1850.148438 L 771.203125 1869.078125 L 776.792969 1851.710938 C 779.863281 1842.160156 785.050781 1820.449219 788.320312 1803.46875 Z M 674.300781 1824.03125 C 677.066406 1820.351562 668.699219 1810.46875 655.710938 1802.070312 C 604.078125 1768.691406 550.429688 1777.25 590.664062 1812.449219 C 611.8125 1830.960938 663.691406 1838.140625 674.300781 1824.03125 Z M 1570.179688 1745.351562 C 1568.558594 1738.359375 1558.320312 1731.589844 1547.441406 1730.308594 C 1525.679688 1727.761719 1521.789062 1735.820312 1538.25 1749.339844 C 1554.078125 1762.359375 1573.558594 1759.921875 1570.179688 1745.351562 Z M 1403.898438 1695.070312 C 1428.140625 1688.789062 1385.929688 1670.878906 1346.96875 1670.910156 C 1308.429688 1670.941406 1253.648438 1693.46875 1253.648438 1709.308594 C 1253.648438 1717.179688 1265.839844 1717.070312 1322.148438 1708.691406 C 1359.820312 1703.089844 1396.609375 1696.960938 1403.898438 1695.070312 Z M 925.5625 1589.171875 C 945.59375 1574.191406 961.984375 1559.050781 961.984375 1555.511719 C 961.984375 1547.488281 928.730469 1539.898438 913.972656 1544.558594 C 901.285156 1548.558594 873.601562 1593.421875 873.601562 1609.980469 C 873.601562 1624.980469 882.328125 1621.480469 925.5625 1589.171875 Z M 1522.890625 1558.421875 C 1666.289062 1533.421875 1690.828125 1506.101562 1599.71875 1472.898438 C 1482.070312 1430.03125 1297.191406 1447 1123.578125 1516.621094 C 1088.179688 1530.820312 1059.210938 1545.058594 1059.210938 1548.261719 C 1059.210938 1553.671875 1095.140625 1563.238281 1147.589844 1571.820312 C 1195.589844 1579.660156 1453.960938 1570.441406 1522.890625 1558.421875 Z M 2534.480469 1510.21875 C 2559.121094 1479.890625 2570.570312 1457.929688 2570.570312 1440.980469 C 2570.570312 1410.679688 2549.75 1401.371094 2526.03125 1421.039062 C 2499.121094 1443.351562 2469.351562 1554.640625 2490.289062 1554.640625 C 2494.75 1554.640625 2514.640625 1534.648438 2534.480469 1510.21875 Z M 2655.050781 1176.519531 C 2734.179688 1124.769531 2757.441406 1100.441406 2750.800781 1076.410156 C 2738.539062 1032.089844 2573.410156 812.109375 2444.828125 668.828125 C 2194.460938 389.808594 1979.25 236.539062 1746.109375 171.191406 C 1681.128906 152.980469 1660.21875 152.011719 1660.21875 167.191406 C 1660.21875 182.460938 1722.171875 229.671875 1805.351562 277.800781 C 2115.671875 457.351562 2236.5 555.199219 2375.789062 739.808594 C 2493.171875 895.378906 2554.929688 1027.699219 2584.039062 1185.941406 C 2586.789062 1200.929688 2591.28125 1213.179688 2594.019531 1213.179688 C 2596.75 1213.179688 2624.21875 1196.691406 2655.050781 1176.519531 Z M 3208.859375 949.140625 C 3227.96875 896.710938 3221.289062 789.75 3194.28125 715.53125 C 3144.160156 577.828125 3055.519531 450.769531 2947.339844 361.53125 C 2791.320312 232.839844 2540.308594 124.089844 2305.609375 83.511719 C 2225.621094 69.679688 2040.269531 60.390625 2040.269531 70.21875 C 2040.269531 74.140625 2075.070312 88.109375 2117.601562 101.261719 C 2449.96875 204.03125 2726.640625 393.96875 2959.441406 679.179688 C 3028.589844 763.910156 3059.121094 812.339844 3103.71875 908.058594 C 3121.410156 946.019531 3142.578125 984.929688 3150.769531 994.539062 L 3165.660156 1012.019531 L 3181.761719 995.671875 C 3190.609375 986.679688 3202.808594 965.738281 3208.859375 949.140625 Z M 163.179688 561.148438 C 160.679688 554.160156 154.066406 509.199219 148.480469 461.25 C 137.425781 366.328125 142.699219 266.761719 163.203125 183.199219 C 170.335938 154.140625 173.484375 126.800781 170.203125 122.441406 C 161.632812 111.039062 97.882812 119.648438 77.257812 134.988281 C 26.964844 172.410156 21.1875 310 65.390625 417.660156 C 94.082031 487.550781 145.480469 573.859375 158.402344 573.859375 C 163.527344 573.859375 165.679688 568.140625 163.179688 561.148438 Z M 792.378906 255.210938 C 800.292969 251.078125 779.921875 239.691406 728.113281 219.25 C 686.398438 202.800781 601.640625 164.089844 539.765625 133.230469 C 419.714844 73.371094 358.792969 50.78125 317.367188 50.78125 C 290.527344 50.78125 236.835938 81.839844 237.757812 96.828125 C 238.421875 107.621094 533.96875 228.730469 604.03125 246.921875 C 658.734375 261.121094 771.519531 266.078125 792.378906 255.210938 Z M 1151.191406 238.5 C 1192.5 229.808594 1238.351562 195.101562 1230.570312 178.429688 C 1223.660156 163.621094 1190.828125 156.921875 1153.441406 162.691406 C 1123.378906 167.320312 985.257812 219.589844 962.761719 234.839844 C 935.175781 253.539062 1067.609375 256.121094 1151.191406 238.5 Z M 1696.519531 92.019531 C 1727.589844 78.730469 1762.960938 65.601562 1775.109375 62.839844 C 1808.25 55.308594 1784.210938 47.128906 1695.570312 35.800781 C 1543.238281 16.320312 1364.75 26.191406 1289 58.289062 C 1248.871094 75.289062 1254.460938 76.710938 1417.160156 90.871094 C 1490.078125 97.21875 1565.640625 105.128906 1585.089844 108.449219 C 1604.539062 111.78125 1624.851562 114.871094 1630.230469 115.328125 C 1635.621094 115.789062 1665.449219 105.300781 1696.519531 92.019531 Z M 1696.519531 92.019531 "/>
</svg>
